# xmcd
#
# Track frame offsets:
#	150
#	14512
#	33345
#	51847
#	69582
#	85882
#	100910
#	115907
#	128807
#	144702
#	164497
#	182400
#	197645
#	211587
#	227227
#
# Disc length: 3271 seconds
#
# Revision: 2
# Processed by: cddbd v1.5.2PL0 Copyright (c) Steve Scherf et al.
# Submitted via: audiograbber 1.83.01
#
DISCID=ce0cc50f
DTITLE=Sound Choice - SC8219
DYEAR=1900
DGENRE=Karaoke Country
TTITLE0=Dwight Yoakam - Try Not To Look So Pretty
TTITLE1=Garth Brooks - Standing Outside The Fire
TTITLE2=Vince Gill - I Never Knew Lonely
TTITLE3=Ronna Reeves - He's My Weakness
TTITLE4=Alan Jackson - Someday
TTITLE5=Billy Ray Cyrus - Words By Heart
TTITLE6=Darin Norwood - Cowboy'S Don'T Cry
TTITLE7=Mary Chapin Carpenter - Why Walk When You Can Fly
TTITLE8=Rick Trevino - She Can't Say I Didn't Cry
TTITLE9=Steve Wariner - Drivin' And Cryin'
TTITLE10=Lorrie Morgan - Heart Over Mind
TTITLE11=Lorrie Morgan - Cryin' Time
TTITLE12=Shelly Wright - He's A Good Ol' Boy
TTITLE13=Billy Dean - If There Hadn't Been You
TTITLE14=Steve Wariner - Crash Course In The Blues
EXTD=
EXTT0=
EXTT1=
EXTT2=
EXTT3=
EXTT4=
EXTT5=
EXTT6=
EXTT7=
EXTT8=
EXTT9=
EXTT10=
EXTT11=
EXTT12=
EXTT13=
EXTT14=
PLAYORDER=
